<svg height="480pt" viewBox="0 0 480 480" width="480pt" xmlns="http://www.w3.org/2000/svg"><path d="m40 8h192c17.671875 0 32 14.328125 32 32v400c0 17.671875-14.328125 32-32 32h-192c-17.671875 0-32-14.328125-32-32v-400c0-17.671875 14.328125-32 32-32zm0 0" fill="#9bfbff"/><path d="m422.207031 274.398438 33.5625-33.597657-56.570312-56.570312-33.550781 33.554687c-1.847657-.800781-3.738282-1.601562-5.601563-2.296875v-47.488281h-80.046875v47.488281c-1.902344.726563-3.792969 1.472657-5.601562 2.296875l-33.597657-33.554687-56.570312 56.570312 33.601562 33.597657c-.800781 1.847656-1.601562 3.738281-2.304687 5.601562h-47.527344v80h47.488281c.726563 1.902344 1.472657 3.792969 2.296875 5.601562l-33.554687 33.597657 56.570312 56.570312 23.199219-23.203125 10.398438-10.359375c1.847656.800781 3.738281 1.601563 5.601562 2.304688v47.488281h80v-47.488281c1.902344-.726563 3.792969-1.472657 5.601562-2.304688l33.597657 33.5625 56.570312-56.570312-33.554687-33.550781c.800781-1.847657 1.601562-3.738282 2.296875-5.601563h47.488281v-80.046875h-47.488281c-.726563-1.902344-1.472657-3.792969-2.304688-5.601562zm-102.207031 109.601562c-35.347656 0-64-28.652344-64-64s28.652344-64 64-64 64 28.652344 64 64-28.652344 64-64 64zm0 0" fill="#d8d7da"/><path d="m456 344v-48h-51.398438c-1.847656-6.574219-4.460937-12.90625-7.785156-18.871094l36.320313-36.328125-33.9375-33.9375-36.320313 36.320313c-5.964844-3.324219-12.300781-5.9375-18.878906-7.785156v-51.398438h-24v272h24v-51.398438c6.574219-1.847656 12.90625-4.460937 18.871094-7.785156l36.320312 36.320313 33.945313-33.9375-36.320313-36.320313c3.324219-5.964844 5.9375-12.300781 7.785156-18.878906zm0 0" fill="#c6c5ca"/><path d="m384 320c0 35.347656-28.652344 64-64 64s-64-28.652344-64-64 28.652344-64 64-64 64 28.652344 64 64zm0 0" fill="#ffc477"/><path d="m120 32c-4.417969 0-8 3.582031-8 8s3.582031 8 8 8h32c4.417969 0 8-3.582031 8-8s-3.582031-8-8-8zm0 0"/><path d="m472 272h-36.121094l25.546875-25.535156c3.121094-3.125 3.121094-8.1875 0-11.3125l-56.578125-56.578125c-3.171875-3-8.136718-3-11.3125 0l-25.535156 25.546875v-36.121094c0-4.417969-3.582031-8-8-8h-80c-4.417969 0-8 3.582031-8 8v36.121094l-25.535156-25.546875c-3.125-3.121094-8.1875-3.121094-11.3125 0l-56.578125 56.578125c-3.121094 3.125-3.121094 8.1875 0 11.3125l25.546875 25.535156h-36.121094c-4.417969 0-8 3.582031-8 8v80c0 4.417969 3.582031 8 8 8h36.121094l-25.546875 25.535156c-3.121094 3.125-3.121094 8.1875 0 11.3125l56.578125 56.578125c.804687.78125 1.773437 1.371094 2.839844 1.726563-1.953126.535156-3.96875.820312-5.992188.847656h-192c-13.253906 0-24-10.746094-24-24v-400c0-13.253906 10.746094-24 24-24h192c13.253906 0 24 10.746094 24 24v96c0 4.417969 3.582031 8 8 8s8-3.582031 8-8v-96c-.027344-22.082031-17.917969-39.9726562-40-40h-192c-22.082031.0273438-39.9726562 17.917969-40 40v400c.0273438 22.082031 17.917969 39.972656 40 40h192c22.082031-.027344 39.972656-17.917969 40-40v32c0 4.417969 3.582031 8 8 8h80c4.417969 0 8-3.582031 8-8v-36.121094l25.535156 25.546875c3.125 3.121094 8.1875 3.121094 11.3125 0l56.578125-56.578125c3.121094-3.125 3.121094-8.1875 0-11.3125l-25.546875-25.535156h36.121094c4.417969 0 8-3.582031 8-8v-80c0-4.417969-3.582031-8-8-8zm-8 80h-39.488281c-3.3125.003906-6.28125 2.050781-7.464844 5.144531-.679687 1.757813-1.375 3.511719-2.144531 5.230469-1.351563 3.027344-.695313 6.578125 1.648437 8.921875l27.90625 27.902344-45.257812 45.257812-27.886719-27.90625c-2.347656-2.347656-5.898438-3.003906-8.929688-1.648437-1.710937.800781-3.460937 1.464844-5.230468 2.136718-3.097656 1.183594-5.144532 4.15625-5.144532 7.472657v39.488281h-64.007812v-39.488281c0-3.316407-2.046875-6.289063-5.144531-7.472657-1.765625-.671874-3.519531-1.367187-5.230469-2.136718-3.03125-1.355469-6.582031-.699219-8.929688 1.648437l-10.296874 10.335938-.039063.042969-17.558594 17.527343-45.257812-45.257812 27.90625-27.894531c2.34375-2.34375 3-5.894532 1.648437-8.921876-.800781-1.71875-1.464844-3.472656-2.144531-5.230468-1.179687-3.097656-4.148437-5.148438-7.464844-5.152344h-39.488281v-64h39.488281c3.3125-.003906 6.28125-2.050781 7.464844-5.144531.679687-1.757813 1.375-3.511719 2.144531-5.230469 1.351563-3.027344.695313-6.578125-1.648437-8.921875l-27.90625-27.902344 45.257812-45.257812 27.886719 27.90625c2.347656 2.347656 5.898438 3.003906 8.929688 1.648437 1.710937-.800781 3.460937-1.464844 5.230468-2.136718 3.101563-1.183594 5.152344-4.15625 5.152344-7.472657v-39.488281h64v39.488281c0 3.316407 2.046875 6.289063 5.144531 7.472657 1.765625.671874 3.519531 1.367187 5.230469 2.136718 3.03125 1.355469 6.582031.699219 8.929688-1.648437l27.894531-27.90625 45.257812 45.257812-27.90625 27.894531c-2.34375 2.34375-3 5.894532-1.648437 8.921876.800781 1.71875 1.464844 3.472656 2.144531 5.230468 1.183594 3.09375 4.152344 5.140625 7.464844 5.144532h39.488281zm0 0"/><path d="m320 248c-39.765625 0-72 32.234375-72 72s32.234375 72 72 72 72-32.234375 72-72c-.042969-39.746094-32.253906-71.957031-72-72zm0 128c-30.929688 0-56-25.070312-56-56s25.070312-56 56-56 56 25.070312 56 56c-.035156 30.914062-25.085938 55.964844-56 56zm0 0"/><path d="m320 48h16c4.417969 0 8-3.582031 8-8s-3.582031-8-8-8h-16c-4.417969 0-8 3.582031-8 8s3.582031 8 8 8zm0 0"/><path d="m360 48h96c4.417969 0 8-3.582031 8-8s-3.582031-8-8-8h-96c-4.417969 0-8 3.582031-8 8s3.582031 8 8 8zm0 0"/><path d="m320 80h96c4.417969 0 8-3.582031 8-8s-3.582031-8-8-8h-96c-4.417969 0-8 3.582031-8 8s3.582031 8 8 8zm0 0"/><path d="m456 64h-16c-4.417969 0-8 3.582031-8 8s3.582031 8 8 8h16c4.417969 0 8-3.582031 8-8s-3.582031-8-8-8zm0 0"/><path d="m320 112h16c4.417969 0 8-3.582031 8-8s-3.582031-8-8-8h-16c-4.417969 0-8 3.582031-8 8s3.582031 8 8 8zm0 0"/><path d="m456 96h-96c-4.417969 0-8 3.582031-8 8s3.582031 8 8 8h96c4.417969 0 8-3.582031 8-8s-3.582031-8-8-8zm0 0"/><path d="m320 144h96c4.417969 0 8-3.582031 8-8s-3.582031-8-8-8h-96c-4.417969 0-8 3.582031-8 8s3.582031 8 8 8zm0 0"/><path d="m456 128h-16c-4.417969 0-8 3.582031-8 8s3.582031 8 8 8h16c4.417969 0 8-3.582031 8-8s-3.582031-8-8-8zm0 0"/></svg>