<svg id="Capa_1" enable-background="new 0 0 512 512" height="512" viewBox="0 0 512 512" width="512" xmlns="http://www.w3.org/2000/svg"><g><g><g><g><g><g><path d="m292.827 452.901h-113.782l30.895-154.868h51.992z" fill="#dbe8f9"/><path d="m448.222 370.062h-424.572c-8.919 0-16.15-7.23-16.15-16.15v-285.371c0-8.919 7.231-16.15 16.15-16.15h424.573c8.919 0 16.15 7.231 16.15 16.15v285.371c-.001 8.919-7.231 16.15-16.151 16.15z" fill="#eaf2ff"/><g><path d="m448.222 52.391h-65.301c8.919 0 16.15 7.23 16.15 16.15v285.371c0 8.919-7.231 16.15-16.15 16.15h65.301c8.919 0 16.15-7.231 16.15-16.15v-285.371c0-8.92-7.23-16.15-16.15-16.15z" fill="#dbe8f9"/></g><path d="m314.017 459.609h-156.161c-7.139 0-12.926-5.787-12.926-12.926 0-15.923 12.908-28.832 28.832-28.832h124.35c15.923 0 28.832 12.908 28.832 28.832-.001 7.139-5.788 12.926-12.927 12.926z" fill="#c9e0fd"/><path d="m298.111 417.851h-65.92c15.923 0 28.832 12.908 28.832 28.832 0 7.139-5.787 12.926-12.926 12.926h65.92c7.139 0 12.926-5.787 12.926-12.926 0-15.924-12.909-28.832-28.832-28.832z" fill="#bcd6f9"/></g><path d="m448.222 52.391h-424.572c-8.919 0-16.15 7.231-16.15 16.15v40.048h456.872v-40.048c0-8.92-7.23-16.15-16.15-16.15z" fill="#9bc4f9"/><g><path d="m448.222 52.391h-65.301c8.919 0 16.15 7.23 16.15 16.15v40.048h65.301v-40.048c0-8.92-7.23-16.15-16.15-16.15z" fill="#7fb2f9"/></g></g><g fill="#ffe07d"><path d="m271.384 209.551v-64.892c0-2.27-1.84-4.11-4.11-4.11h-217.147c-2.27 0-4.11 1.84-4.11 4.11v64.892c0 2.27 1.84 4.11 4.11 4.11h217.147c2.27 0 4.11-1.84 4.11-4.11z"/><g><path d="m98.28 255.983h-48.153c-2.27 0-4.11 1.84-4.11 4.11v64.892c0 2.27 1.84 4.11 4.11 4.11h48.153c2.27 0 4.11-1.84 4.11-4.11v-64.892c0-2.27-1.84-4.11-4.11-4.11z"/><path d="m135.83 260.093v64.892c0 2.27 1.84 4.11 4.11 4.11h127.334c2.27 0 4.11-1.84 4.11-4.11v-64.892c0-2.27-1.84-4.11-4.11-4.11h-127.334c-2.27 0-4.11 1.84-4.11 4.11z"/></g></g><g><g><path d="m490.654 313.641c-.059 0-.117 0-.175-.001-2.581-.031-4.804-1.792-5.582-4.253-1.35-4.268-3.064-8.373-5.101-12.284-1.194-2.292-.869-5.113.935-6.964.044-.045.088-.09.133-.134 5.407-5.407 5.407-14.174 0-19.581l-7.263-7.263c-5.407-5.407-14.174-5.407-19.581 0-.045.045-.09.089-.134.133-1.851 1.804-4.672 2.129-6.964.935-3.911-2.037-8.016-3.751-12.284-5.101-2.461-.778-4.223-3.002-4.253-5.582-.001-.058-.001-.117-.001-.175 0-7.647-6.199-13.846-13.846-13.846h-10.272c-7.647 0-13.846 6.199-13.846 13.846 0 .058 0 .117-.001.175-.031 2.581-1.792 4.804-4.253 5.582-4.268 1.35-8.373 3.064-12.284 5.101-2.292 1.194-5.113.869-6.964-.935-.045-.044-.09-.088-.134-.133-5.407-5.407-14.174-5.407-19.581 0l-7.264 7.264c-5.407 5.407-5.407 14.174 0 19.581.045.045.089.089.133.134 1.804 1.851 2.129 4.672.935 6.964-2.037 3.911-3.751 8.016-5.101 12.284-.778 2.46-3 4.222-5.58 4.253-.057.001-.114.001-.171.001-7.622.003-13.853 5.842-13.853 13.465v11.035c0 7.622 6.231 13.461 13.853 13.465.057 0 .114 0 .171.001 2.58.031 4.802 1.793 5.58 4.253 1.35 4.268 3.064 8.374 5.101 12.284 1.194 2.292.869 5.113-.935 6.964-.044.045-.088.09-.133.134-5.407 5.407-5.407 14.174 0 19.581l7.263 7.263c5.407 5.407 14.174 5.407 19.581 0 .045-.045.089-.089.134-.133 1.851-1.804 4.672-2.129 6.964-.935 3.911 2.037 8.016 3.751 12.284 5.101 2.461.778 4.223 3.002 4.253 5.582.001.058.001.117.001.175 0 7.647 6.199 13.846 13.846 13.846h10.272c7.647 0 13.846-6.199 13.846-13.846 0-.058 0-.117.001-.175.031-2.581 1.792-4.804 4.253-5.582 4.268-1.35 8.373-3.063 12.284-5.101 2.292-1.194 5.113-.869 6.964.935.045.044.09.088.134.133 5.407 5.407 14.174 5.407 19.581 0l7.263-7.263c5.407-5.407 5.407-14.174 0-19.581-.045-.045-.089-.089-.133-.134-1.804-1.851-2.129-4.672-.935-6.964 2.037-3.911 3.751-8.016 5.101-12.284.778-2.461 3.002-4.223 5.582-4.253.058-.001.117-.001.175-.001 7.647 0 13.846-6.199 13.846-13.846v-10.272c.001-7.649-6.198-13.848-13.845-13.848z" fill="#407093"/></g><path d="m490.654 313.641c-.059 0-.117 0-.175-.001-2.581-.03-4.804-1.792-5.582-4.253-1.35-4.268-3.064-8.373-5.101-12.284-1.194-2.292-.869-5.113.935-6.964.044-.045.088-.09.133-.134 5.407-5.407 5.407-14.174 0-19.581l-7.263-7.263c-5.407-5.407-14.174-5.407-19.581 0-.045.045-.089.089-.134.133-1.851 1.804-4.672 2.129-6.964.935-3.911-2.037-8.016-3.751-12.284-5.101-2.461-.778-4.223-3.002-4.253-5.583-.001-.058-.001-.117-.001-.175 0-7.647-6.199-13.846-13.846-13.846h-10.272c-7.123 0-12.984 5.381-13.754 12.299 27.877 16.133 46.633 46.276 46.633 80.802s-18.756 64.669-46.633 80.802c.77 6.918 6.631 12.299 13.754 12.299h10.272c7.647 0 13.846-6.199 13.846-13.846 0-.058 0-.117.001-.175.031-2.581 1.792-4.804 4.253-5.582 4.268-1.35 8.373-3.063 12.284-5.101 2.292-1.194 5.113-.869 6.964.935.045.044.09.088.134.133 5.407 5.407 14.174 5.407 19.581 0l7.263-7.263c5.407-5.407 5.407-14.174 0-19.581-.045-.045-.089-.089-.133-.134-1.804-1.851-2.129-4.672-.935-6.964 2.037-3.911 3.751-8.016 5.101-12.284.778-2.461 3.002-4.223 5.582-4.253.058-.001.117-.001.175-.001 7.647 0 13.846-6.199 13.846-13.846v-10.272c0-7.652-6.199-13.851-13.846-13.851z" fill="#365e7d"/><circle cx="411.4" cy="332.623" fill="#eaf2ff" r="45.286"/><path d="m456.686 332.623c0-18.618-11.239-34.606-27.3-41.565 6.24 12.516 9.756 26.629 9.756 41.565s-3.516 29.049-9.756 41.565c16.061-6.959 27.3-22.947 27.3-41.565z" fill="#dbe8f9"/></g></g></g></g><g><circle cx="53.591" cy="80.494" r="7.569"/><circle cx="86.582" cy="80.494" r="7.569"/><circle cx="119.574" cy="80.494" r="7.569"/><g><path d="m313.165 202.855c-4.145 0-7.506 3.36-7.506 7.506s3.36 7.506 7.506 7.506h58.502c4.145 0 7.506-3.36 7.506-7.506s-3.36-7.506-7.506-7.506z"/><path d="m430.169 136.346h-117.004c-4.145 0-7.506 3.36-7.506 7.506s3.36 7.506 7.506 7.506h117.004c4.145 0 7.506-3.36 7.506-7.506s-3.361-7.506-7.506-7.506z"/><path d="m437.675 177.106c0-4.146-3.36-7.506-7.506-7.506h-117.004c-4.145 0-7.506 3.36-7.506 7.506s3.36 7.506 7.506 7.506h117.004c4.145 0 7.506-3.36 7.506-7.506z"/><path d="m491.737 306.161c-1.309-3.972-2.93-7.875-4.829-11.63 7.575-8.361 7.366-21.308-.742-29.416l-7.263-7.263c-8.079-8.078-21.074-8.318-29.417-.743-3.754-1.899-7.658-3.519-11.629-4.829-.569-11.269-9.916-20.263-21.324-20.263h-10.273c-11.408 0-20.755 8.994-21.324 20.263-3.971 1.31-7.875 2.93-11.63 4.83-8.363-7.577-21.308-7.366-29.415.742l-7.264 7.263c-8.236 8.235-8.188 21.223-.743 29.417-1.896 3.75-3.517 7.653-4.828 11.628-11.449.545-20.264 9.55-20.264 20.944v11.036c0 11.368 8.775 20.357 20.262 20.941 1.312 3.978 2.933 7.882 4.83 11.632-7.576 8.361-7.366 21.308.742 29.416l7.263 7.262c8.017 8.018 20.904 8.407 29.412.741 3.756 1.9 7.661 3.522 11.634 4.832.569 11.269 9.916 20.262 21.324 20.262h10.272c11.408 0 20.755-8.993 21.324-20.262 3.971-1.31 7.875-2.931 11.63-4.83 8.372 7.575 21.347 7.329 29.416-.742l7.263-7.263c8.107-8.106 8.319-21.052.742-29.416 1.898-3.754 3.519-7.658 4.829-11.631 11.269-.569 20.263-9.916 20.263-21.324v-10.271c.002-11.41-8.992-20.757-20.261-21.326zm5.252 31.596c0 3.496-2.844 6.34-6.34 6.34l-.151.001c-.009 0-.106 0-.115.001-5.79.069-10.872 3.885-12.648 9.494-1.2 3.796-2.748 7.524-4.6 11.08-2.721 5.222-1.83 11.518 2.225 15.681.04.1 4.634 4.716.191 9.158l-7.263 7.263c-4.441 4.443-9.069-.161-9.169-.199-4.151-4.047-10.448-4.935-15.67-2.217-3.559 1.854-7.287 3.402-11.079 4.601-5.611 1.774-9.427 6.858-9.496 12.676-.043.1-.089 6.578-6.341 6.578h-10.273c-6.268 0-6.299-6.503-6.342-6.603-.068-5.792-3.884-10.876-9.495-12.651-3.793-1.199-7.521-2.747-11.079-4.6-2.016-1.051-4.191-1.563-6.342-1.563-6.028 0-9.42 3.906-9.532 3.979-2.478 2.479-6.488 2.479-8.966 0l-7.264-7.263c-2.434-2.434-2.531-6.434.029-8.994.05-.104 6.902-7.177 2.388-15.846-1.851-3.552-3.399-7.28-4.601-11.079-1.774-5.611-6.857-9.426-12.607-9.493-.1-.039-6.647.016-6.647-5.961v-11.036c0-5.952 6.505-5.921 6.606-5.961 5.791-.067 10.874-3.883 12.648-9.493 1.202-3.798 2.75-7.526 4.602-11.081 2.72-5.222 1.829-11.518-2.197-15.65-.04-.1-4.675-4.734-.22-9.189l7.264-7.264c4.44-4.44 9.067.16 9.167.198 4.151 4.049 10.449 4.938 15.671 2.219 3.559-1.854 7.287-3.402 11.08-4.601 5.611-1.775 9.427-6.859 9.495-12.68.043-.1.09-6.575 6.341-6.575h10.271c6.268 0 6.299 6.505 6.342 6.606.069 5.791 3.885 10.875 9.495 12.649 3.792 1.199 7.52 2.747 11.079 4.6 5.222 2.722 11.52 1.831 15.62-2.168.1-.041 4.743-4.727 9.22-.248l7.263 7.263c4.449 4.449-.161 9.069-.201 9.169-4.046 4.152-4.937 10.448-2.217 15.669 1.853 3.558 3.401 7.286 4.602 11.082 1.775 5.61 6.859 9.425 12.612 9.493l.301.002c3.496 0 6.34 2.845 6.34 6.341v10.272z"/><path d="m411.396 279.831c-29.109 0-52.791 23.682-52.791 52.791s23.682 52.791 52.791 52.791 52.791-23.682 52.791-52.791c0-29.11-23.682-52.791-52.791-52.791zm0 90.57c-20.832 0-37.78-16.947-37.78-37.78 0-20.832 16.948-37.78 37.78-37.78s37.78 16.947 37.78 37.78c0 20.832-16.948 37.78-37.78 37.78z"/><path d="m298.11 410.342h-6.119l-6.539-32.778h22.004c4.145 0 7.506-3.36 7.506-7.506s-3.36-7.506-7.506-7.506h-31.078c-.024 0-.047 0-.071 0-11.057 0-242.058 0-252.651 0-4.766 0-8.644-3.877-8.644-8.643v-237.812h441.85v108.016c0 4.146 3.36 7.506 7.506 7.506s7.506-3.36 7.506-7.506v-155.568c0-13.043-10.612-23.655-23.655-23.655h-424.564c-13.043 0-23.655 10.612-23.655 23.655v285.365c0 13.043 10.612 23.655 23.655 23.655h162.767l-6.539 32.778h-6.12c-20.036 0-36.337 16.3-36.337 36.336 0 11.266 9.166 20.431 20.432 20.431h156.158c11.266 0 20.431-9.165 20.431-20.431 0-20.036-16.301-36.337-36.337-36.337zm-274.455-350.44h424.563c4.766 0 8.644 3.877 8.644 8.643v32.541h-441.851v-32.541c0-4.766 3.878-8.643 8.644-8.643zm178.074 317.662h68.416l6.539 32.778h-81.494zm112.287 74.534h-156.158c-2.989 0-5.421-2.432-5.421-5.42 0-11.759 9.567-21.325 21.326-21.325h124.347c11.759 0 21.326 9.566 21.326 21.325 0 2.989-2.432 5.42-5.42 5.42z"/><path d="m278.889 144.661c0-6.404-5.211-11.615-11.616-11.615h-217.142c-6.405 0-11.615 5.211-11.615 11.615v64.891c0 6.404 5.21 11.615 11.615 11.615h217.143c6.405 0 11.616-5.211 11.616-11.615v-64.891zm-15.011 61.495h-210.351v-58.099h210.351z"/><path d="m50.132 248.477c-6.405 0-11.616 5.211-11.616 11.616v64.891c0 6.404 5.211 11.615 11.616 11.615h48.152c6.405 0 11.616-5.211 11.616-11.615v-64.891c0-6.405-5.211-11.616-11.616-11.616zm44.756 73.111h-41.361v-58.1h41.361z"/><path d="m267.274 248.477h-127.331c-6.405 0-11.616 5.211-11.616 11.616v64.891c0 6.404 5.211 11.615 11.616 11.615h127.331c6.405 0 11.616-5.211 11.616-11.615v-64.891c-.001-6.405-5.212-11.616-11.616-11.616zm-3.396 73.111h-120.54v-58.1h120.54z"/></g></g></g></svg>